<svg xmlns="http://www.w3.org/2000/svg" width="960" height="500"><defs><style type="text/css"><![CDATA[ 
    .bar { fill: steelblue; }
    .bar:hover { fill: brown; }
   ]]></style></defs><g transform="translate(20, 20)"><rect class="bar" x="4.577114427860693" width="41.194029850746276" y="459.70830691185796" height="0.29169308814203987"></rect><rect class="bar" x="50.34825870646766" width="41.194029850746276" y="456.49968294229546" height="3.5003170577045353"></rect><rect class="bar" x="96.11940298507463" width="41.194029850746276" y="438.7064045656309" height="21.29359543436908"></rect><rect class="bar" x="141.89054726368158" width="41.194029850746276" y="413.6207989854154" height="46.37920101458462"></rect><rect class="bar" x="187.66169154228857" width="41.194029850746276" y="331.6550412175016" height="128.3449587824984"></rect><rect class="bar" x="233.43283582089555" width="41.194029850746276" y="290.81800887761574" height="169.18199112238426"></rect><rect class="bar" x="279.2039800995025" width="41.194029850746276" y="190.4755865567533" height="269.52441344324666"></rect><rect class="bar" x="324.97512437810946" width="41.194029850746276" y="0" height="460"></rect><rect class="bar" x="370.74626865671644" width="41.194029850746276" y="64.1724793912492" height="395.8275206087508"></rect><rect class="bar" x="416.5174129353234" width="41.194029850746276" y="0.8750792644261418" height="459.1249207355739"></rect><rect class="bar" x="462.2885572139304" width="41.194029850746276" y="147.01331642358912" height="312.9866835764109"></rect><rect class="bar" x="508.05970149253733" width="41.194029850746276" y="204.18516169942927" height="255.81483830057073"></rect><rect class="bar" x="553.8308457711443" width="41.194029850746276" y="261.3570069752695" height="198.64299302473052"></rect><rect class="bar" x="599.6019900497513" width="41.194029850746276" y="371.0336081166772" height="88.96639188332279"></rect><rect class="bar" x="645.3731343283582" width="41.194029850746276" y="398.7444514901712" height="61.25554850982883"></rect><rect class="bar" x="691.1442786069653" width="41.194029850746276" y="434.3310082435003" height="25.66899175649968"></rect><rect class="bar" x="736.9154228855722" width="41.194029850746276" y="449.4990488268865" height="10.500951173113492"></rect><rect class="bar" x="782.6865671641791" width="41.194029850746276" y="452.12428662016487" height="7.875713379835133"></rect><rect class="bar" x="828.4577114427861" width="41.194029850746276" y="459.4166138237159" height="0.5833861762840797"></rect><rect class="bar" x="874.2288557213931" width="41.194029850746276" y="458.83322764743184" height="1.1667723525681595"></rect><g transform="translate(0, 460)" fill="none" font-size="10" font-family="sans-serif" text-anchor="middle"><path class="domain" stroke="#000" d="M0.5000,6V0.5000H920.5000V6"></path><g class="tick" opacity="1" transform="translate(25.17412935323383,0)"><line stroke="#000" y2="6"></line><text fill="#000" y="9" dy="0.71em">0.86</text></g><g class="tick" opacity="1" transform="translate(70.94527363184079,0)"><line stroke="#000" y2="6"></line><text fill="#000" y="9" dy="0.71em">0.90</text></g><g class="tick" opacity="1" transform="translate(116.71641791044777,0)"><line stroke="#000" y2="6"></line><text fill="#000" y="9" dy="0.71em">0.95</text></g><g class="tick" opacity="1" transform="translate(162.48756218905473,0)"><line stroke="#000" y2="6"></line><text fill="#000" y="9" dy="0.71em">0.99</text></g><g class="tick" opacity="1" transform="translate(208.2587064676617,0)"><line stroke="#000" y2="6"></line><text fill="#000" y="9" dy="0.71em">1.04</text></g><g class="tick" opacity="1" transform="translate(254.0298507462687,0)"><line stroke="#000" y2="6"></line><text fill="#000" y="9" dy="0.71em">1.08</text></g><g class="tick" opacity="1" transform="translate(299.8009950248756,0)"><line stroke="#000" y2="6"></line><text fill="#000" y="9" dy="0.71em">1.12</text></g><g class="tick" opacity="1" transform="translate(345.5721393034826,0)"><line stroke="#000" y2="6"></line><text fill="#000" y="9" dy="0.71em">1.17</text></g><g class="tick" opacity="1" transform="translate(391.34328358208955,0)"><line stroke="#000" y2="6"></line><text fill="#000" y="9" dy="0.71em">1.21</text></g><g class="tick" opacity="1" transform="translate(437.11442786069654,0)"><line stroke="#000" y2="6"></line><text fill="#000" y="9" dy="0.71em">1.26</text></g><g class="tick" opacity="1" transform="translate(482.8855721393035,0)"><line stroke="#000" y2="6"></line><text fill="#000" y="9" dy="0.71em">1.30</text></g><g class="tick" opacity="1" transform="translate(528.6567164179105,0)"><line stroke="#000" y2="6"></line><text fill="#000" y="9" dy="0.71em">1.34</text></g><g class="tick" opacity="1" transform="translate(574.4278606965174,0)"><line stroke="#000" y2="6"></line><text fill="#000" y="9" dy="0.71em">1.39</text></g><g class="tick" opacity="1" transform="translate(620.1990049751245,0)"><line stroke="#000" y2="6"></line><text fill="#000" y="9" dy="0.71em">1.43</text></g><g class="tick" opacity="1" transform="translate(665.9701492537314,0)"><line stroke="#000" y2="6"></line><text fill="#000" y="9" dy="0.71em">1.48</text></g><g class="tick" opacity="1" transform="translate(711.7412935323384,0)"><line stroke="#000" y2="6"></line><text fill="#000" y="9" dy="0.71em">1.52</text></g><g class="tick" opacity="1" transform="translate(757.5124378109454,0)"><line stroke="#000" y2="6"></line><text fill="#000" y="9" dy="0.71em">1.56</text></g><g class="tick" opacity="1" transform="translate(803.2835820895523,0)"><line stroke="#000" y2="6"></line><text fill="#000" y="9" dy="0.71em">1.61</text></g><g class="tick" opacity="1" transform="translate(849.0547263681593,0)"><line stroke="#000" y2="6"></line><text fill="#000" y="9" dy="0.71em">1.65</text></g><g class="tick" opacity="1" transform="translate(894.8258706467662,0)"><line stroke="#000" y2="6"></line><text fill="#000" y="9" dy="0.71em">1.70</text></g></g><text transform="translate(460, 475)" style="text-anchor: middle;">Days</text><g fill="none" font-size="10" font-family="sans-serif" text-anchor="end"><path class="domain" stroke="#000" d="M-6,460.5000H0.5000V0.5000H-6"></path><g class="tick" opacity="1" transform="translate(0,460.5)"><line stroke="#000" x2="-6"></line><text fill="#000" x="-9" dy="0.32em">0</text></g><g class="tick" opacity="1" transform="translate(0,402.1613823715916)"><line stroke="#000" x2="-6"></line><text fill="#000" x="-9" dy="0.32em">200</text></g><g class="tick" opacity="1" transform="translate(0,343.82276474318326)"><line stroke="#000" x2="-6"></line><text fill="#000" x="-9" dy="0.32em">400</text></g><g class="tick" opacity="1" transform="translate(0,285.4841471147749)"><line stroke="#000" x2="-6"></line><text fill="#000" x="-9" dy="0.32em">600</text></g><g class="tick" opacity="1" transform="translate(0,227.14552948636654)"><line stroke="#000" x2="-6"></line><text fill="#000" x="-9" dy="0.32em">800</text></g><g class="tick" opacity="1" transform="translate(0,168.8069118579581)"><line stroke="#000" x2="-6"></line><text fill="#000" x="-9" dy="0.32em">1,000</text></g><g class="tick" opacity="1" transform="translate(0,110.46829422954976)"><line stroke="#000" x2="-6"></line><text fill="#000" x="-9" dy="0.32em">1,200</text></g><g class="tick" opacity="1" transform="translate(0,52.1296766011414)"><line stroke="#000" x2="-6"></line><text fill="#000" x="-9" dy="0.32em">1,400</text></g></g><text transform="rotate(-90)" y="-20" x="-230" dy="1em" style="text-anchor: middle;">Trials</text></g></svg>